<?xml version="1.0" encoding="UTF-8" standalone="no"?>
<!DOCTYPE svg PUBLIC "-//W3C//DTD SVG 1.1//EN"
 "http://www.w3.org/Graphics/SVG/1.1/DTD/svg11.dtd">
<!-- Generated by graphviz version 2.50.0 (0)
 -->
<!-- Title: finite_state_machine Pages: 1 -->
<svg width="864pt" height="265pt"
 viewBox="0.00 0.00 864.00 265.44" xmlns="http://www.w3.org/2000/svg" xmlns:xlink="http://www.w3.org/1999/xlink">
<g id="graph0" class="graph" transform="scale(0.88 0.88) rotate(0) translate(4 296)">
<title>finite_state_machine</title>
<polygon fill="white" stroke="transparent" points="-4,4 -4,-296 972.5,-296 972.5,4 -4,4"/>
<!-- None -->
<g id="node1" class="node">
<title>None</title>
<polygon fill="none" stroke="black" points="65.5,-165 11.5,-165 11.5,-129 65.5,-129 65.5,-165"/>
<text text-anchor="middle" x="38.5" y="-143.3" font-family="Times,serif" font-size="14.00">None</text>
</g>
<!-- None&#45;&gt;None -->
<g id="edge1" class="edge">
<title>None&#45;&gt;None</title>
<path fill="none" stroke="black" d="M29.82,-165.15C28.48,-174.54 31.38,-183 38.5,-183 42.84,-183 45.61,-179.86 46.81,-175.28"/>
<polygon fill="black" stroke="black" points="50.32,-175.27 47.18,-165.15 43.32,-175.02 50.32,-175.27"/>
<text text-anchor="middle" x="38.5" y="-186.8" font-family="Times,serif" font-size="14.00">␣, \t, \r, \n, \0</text>
</g>
<!-- Section name -->
<g id="node2" class="node">
<title>Section name</title>
<polygon fill="none" stroke="black" points="198.5,-165 108.5,-165 108.5,-129 198.5,-129 198.5,-165"/>
<text text-anchor="middle" x="153.5" y="-143.3" font-family="Times,serif" font-size="14.00">Section name</text>
</g>
<!-- None&#45;&gt;Section name -->
<g id="edge2" class="edge">
<title>None&#45;&gt;Section name</title>
<path fill="none" stroke="black" d="M65.71,-147C75.39,-147 86.76,-147 98.02,-147"/>
<polygon fill="black" stroke="black" points="98.29,-150.5 108.29,-147 98.29,-143.5 98.29,-150.5"/>
<text text-anchor="middle" x="87" y="-150.8" font-family="Times,serif" font-size="14.00">[</text>
</g>
<!-- Key name -->
<g id="node4" class="node">
<title>Key name</title>
<polygon fill="none" stroke="black" points="189.5,-78 117.5,-78 117.5,-42 189.5,-42 189.5,-78"/>
<text text-anchor="middle" x="153.5" y="-56.3" font-family="Times,serif" font-size="14.00">Key name</text>
</g>
<!-- None&#45;&gt;Key name -->
<g id="edge6" class="edge">
<title>None&#45;&gt;Key name</title>
<path fill="none" stroke="black" d="M62.91,-128.97C79.73,-116.03 102.59,-98.43 121,-84.25"/>
<polygon fill="black" stroke="black" points="123.33,-86.88 129.12,-78 119.06,-81.33 123.33,-86.88"/>
<text text-anchor="middle" x="87" y="-115.8" font-family="Times,serif" font-size="14.00">*</text>
</g>
<!-- Section name&#45;&gt;Section name -->
<g id="edge3" class="edge">
<title>Section name&#45;&gt;Section name</title>
<path fill="none" stroke="black" d="M141.56,-165.15C139.72,-174.54 143.7,-183 153.5,-183 159.47,-183 163.28,-179.86 164.93,-175.28"/>
<polygon fill="black" stroke="black" points="168.43,-175.32 165.44,-165.15 161.44,-174.96 168.43,-175.32"/>
<text text-anchor="middle" x="153.5" y="-186.8" font-family="Times,serif" font-size="14.00">*</text>
</g>
<!-- After section name -->
<g id="node3" class="node">
<title>After section name</title>
<polygon fill="none" stroke="black" points="427.5,-237 307.5,-237 307.5,-201 427.5,-201 427.5,-237"/>
<text text-anchor="middle" x="367.5" y="-215.3" font-family="Times,serif" font-size="14.00">After section name</text>
</g>
<!-- Section name&#45;&gt;After section name -->
<g id="edge4" class="edge">
<title>Section name&#45;&gt;After section name</title>
<path fill="none" stroke="black" d="M198.77,-160.47C225.22,-168.67 259.41,-179.55 289.5,-190 296.27,-192.35 303.35,-194.9 310.35,-197.47"/>
<polygon fill="black" stroke="black" points="309.22,-200.78 319.81,-200.97 311.65,-194.22 309.22,-200.78"/>
<text text-anchor="middle" x="253" y="-208.8" font-family="Times,serif" font-size="14.00">]</text>
<text text-anchor="middle" x="253" y="-193.8" font-family="Times,serif" font-size="14.00">AddSection()</text>
</g>
<!-- After section name&#45;&gt;None -->
<g id="edge5" class="edge">
<title>After section name&#45;&gt;None</title>
<path fill="none" stroke="black" d="M307.37,-228.04C253.21,-233.65 172.02,-235.2 108.5,-207 90.84,-199.16 74.37,-185.21 61.96,-172.73"/>
<polygon fill="black" stroke="black" points="64.21,-170.03 54.77,-165.22 59.16,-174.87 64.21,-170.03"/>
<text text-anchor="middle" x="153.5" y="-231.8" font-family="Times,serif" font-size="14.00">\r, \n</text>
</g>
<!-- Key name&#45;&gt;Key name -->
<g id="edge7" class="edge">
<title>Key name&#45;&gt;Key name</title>
<path fill="none" stroke="black" d="M141.56,-78.15C139.72,-87.54 143.7,-96 153.5,-96 159.47,-96 163.28,-92.86 164.93,-88.28"/>
<polygon fill="black" stroke="black" points="168.43,-88.32 165.44,-78.15 161.44,-87.96 168.43,-88.32"/>
<text text-anchor="middle" x="153.5" y="-99.8" font-family="Times,serif" font-size="14.00">*</text>
</g>
<!-- After key name -->
<g id="node5" class="node">
<title>After key name</title>
<polygon fill="none" stroke="black" points="418,-84 317,-84 317,-48 418,-48 418,-84"/>
<text text-anchor="middle" x="367.5" y="-62.3" font-family="Times,serif" font-size="14.00">After key name</text>
</g>
<!-- Key name&#45;&gt;After key name -->
<g id="edge8" class="edge">
<title>Key name&#45;&gt;After key name</title>
<path fill="none" stroke="black" d="M189.51,-60.99C221.22,-61.89 268.62,-63.23 306.39,-64.3"/>
<polygon fill="black" stroke="black" points="306.67,-67.81 316.77,-64.59 306.87,-60.81 306.67,-67.81"/>
<text text-anchor="middle" x="253" y="-67.8" font-family="Times,serif" font-size="14.00">␣, \t</text>
</g>
<!-- Before key value -->
<g id="node6" class="node">
<title>Before key value</title>
<polygon fill="none" stroke="black" points="619.5,-146 510.5,-146 510.5,-110 619.5,-110 619.5,-146"/>
<text text-anchor="middle" x="565" y="-124.3" font-family="Times,serif" font-size="14.00">Before key value</text>
</g>
<!-- Key name&#45;&gt;Before key value -->
<g id="edge10" class="edge">
<title>Key name&#45;&gt;Before key value</title>
<path fill="none" stroke="black" d="M186.08,-78.09C216.19,-94.23 263.34,-116.7 307.5,-126 372.05,-139.59 447.77,-138.12 500.13,-134.47"/>
<polygon fill="black" stroke="black" points="500.57,-137.95 510.28,-133.72 500.05,-130.97 500.57,-137.95"/>
<text text-anchor="middle" x="367.5" y="-140.8" font-family="Times,serif" font-size="14.00">=</text>
</g>
<!-- After key name&#45;&gt;After key name -->
<g id="edge9" class="edge">
<title>After key name&#45;&gt;After key name</title>
<path fill="none" stroke="black" d="M349.41,-84.15C346.63,-93.54 352.66,-102 367.5,-102 376.55,-102 382.32,-98.86 384.82,-94.28"/>
<polygon fill="black" stroke="black" points="388.32,-94.39 385.59,-84.15 381.34,-93.86 388.32,-94.39"/>
<text text-anchor="middle" x="367.5" y="-105.8" font-family="Times,serif" font-size="14.00">␣, \t</text>
</g>
<!-- After key name&#45;&gt;Before key value -->
<g id="edge11" class="edge">
<title>After key name&#45;&gt;Before key value</title>
<path fill="none" stroke="black" d="M418.09,-81.73C443.17,-89.68 473.9,-99.43 500.68,-107.92"/>
<polygon fill="black" stroke="black" points="499.76,-111.3 510.35,-110.99 501.87,-104.63 499.76,-111.3"/>
<text text-anchor="middle" x="469" y="-108.8" font-family="Times,serif" font-size="14.00">=</text>
</g>
<!-- Before key value&#45;&gt;Before key value -->
<g id="edge12" class="edge">
<title>Before key value&#45;&gt;Before key value</title>
<path fill="none" stroke="black" d="M551.25,-146.15C549.14,-155.54 553.72,-164 565,-164 571.87,-164 576.26,-160.86 578.16,-156.28"/>
<polygon fill="black" stroke="black" points="581.66,-156.34 578.75,-146.15 574.68,-155.93 581.66,-156.34"/>
<text text-anchor="middle" x="565" y="-167.8" font-family="Times,serif" font-size="14.00">␣, \t</text>
</g>
<!-- Quoted value -->
<g id="node7" class="node">
<title>Quoted value</title>
<polygon fill="none" stroke="black" points="764,-214 675,-214 675,-178 764,-178 764,-214"/>
<text text-anchor="middle" x="719.5" y="-192.3" font-family="Times,serif" font-size="14.00">Quoted value</text>
</g>
<!-- Before key value&#45;&gt;Quoted value -->
<g id="edge13" class="edge">
<title>Before key value&#45;&gt;Quoted value</title>
<path fill="none" stroke="black" d="M606.47,-146.04C625.59,-154.57 648.59,-164.83 668.76,-173.82"/>
<polygon fill="black" stroke="black" points="667.55,-177.11 678.11,-177.99 670.4,-170.72 667.55,-177.11"/>
<text text-anchor="middle" x="641" y="-165.8" font-family="Times,serif" font-size="14.00">&quot;</text>
</g>
<!-- Non&#45;quoted value -->
<g id="node9" class="node">
<title>Non&#45;quoted value</title>
<polygon fill="none" stroke="black" points="776.5,-73 662.5,-73 662.5,-37 776.5,-37 776.5,-73"/>
<text text-anchor="middle" x="719.5" y="-51.3" font-family="Times,serif" font-size="14.00">Non&#45;quoted value</text>
</g>
<!-- Before key value&#45;&gt;Non&#45;quoted value -->
<g id="edge17" class="edge">
<title>Before key value&#45;&gt;Non&#45;quoted value</title>
<path fill="none" stroke="black" d="M603.7,-109.96C624.23,-100.13 649.81,-87.88 671.62,-77.44"/>
<polygon fill="black" stroke="black" points="673.2,-80.57 680.71,-73.09 670.18,-74.25 673.2,-80.57"/>
<text text-anchor="middle" x="641" y="-97.8" font-family="Times,serif" font-size="14.00">*</text>
</g>
<!-- Quoted value&#45;&gt;Quoted value -->
<g id="edge14" class="edge">
<title>Quoted value&#45;&gt;Quoted value</title>
<path fill="none" stroke="black" d="M705.39,-214.15C703.22,-223.54 707.92,-232 719.5,-232 726.56,-232 731.06,-228.86 733.01,-224.28"/>
<polygon fill="black" stroke="black" points="736.51,-224.34 733.61,-214.15 729.52,-223.93 736.51,-224.34"/>
<text text-anchor="middle" x="719.5" y="-235.8" font-family="Times,serif" font-size="14.00">*</text>
</g>
<!-- After key value -->
<g id="node8" class="node">
<title>After key value</title>
<polygon fill="none" stroke="black" points="968.5,-263 867.5,-263 867.5,-227 968.5,-227 968.5,-263"/>
<text text-anchor="middle" x="918" y="-241.3" font-family="Times,serif" font-size="14.00">After key value</text>
</g>
<!-- Quoted value&#45;&gt;After key value -->
<g id="edge15" class="edge">
<title>Quoted value&#45;&gt;After key value</title>
<path fill="none" stroke="black" d="M764.11,-206.87C791.54,-213.71 827.3,-222.63 857.33,-230.12"/>
<polygon fill="black" stroke="black" points="856.73,-233.58 867.28,-232.6 858.42,-226.79 856.73,-233.58"/>
<text text-anchor="middle" x="822" y="-245.8" font-family="Times,serif" font-size="14.00">&quot;</text>
<text text-anchor="middle" x="822" y="-230.8" font-family="Times,serif" font-size="14.00">AddKey()</text>
</g>
<!-- After key value&#45;&gt;None -->
<g id="edge16" class="edge">
<title>After key value&#45;&gt;None</title>
<path fill="none" stroke="black" d="M867.29,-257.65C827.78,-266.59 770.96,-277 720.5,-277 152.5,-277 152.5,-277 152.5,-277 98.7,-277 64.7,-212.79 49.25,-174.62"/>
<polygon fill="black" stroke="black" points="52.43,-173.14 45.55,-165.08 45.9,-175.66 52.43,-173.14"/>
<text text-anchor="middle" x="469" y="-280.8" font-family="Times,serif" font-size="14.00">\r, \n, \0</text>
</g>
<!-- Non&#45;quoted value&#45;&gt;None -->
<g id="edge19" class="edge">
<title>Non&#45;quoted value&#45;&gt;None</title>
<path fill="none" stroke="black" d="M688.12,-36.99C658.14,-20.95 610.47,0 566,0 152.5,0 152.5,0 152.5,0 93.02,0 60.54,-76.57 47.06,-119.19"/>
<polygon fill="black" stroke="black" points="43.65,-118.39 44.11,-128.97 50.35,-120.41 43.65,-118.39"/>
<text text-anchor="middle" x="367.5" y="-18.8" font-family="Times,serif" font-size="14.00">\r, \n, \0</text>
<text text-anchor="middle" x="367.5" y="-3.8" font-family="Times,serif" font-size="14.00">AddKey()</text>
</g>
<!-- Non&#45;quoted value&#45;&gt;Non&#45;quoted value -->
<g id="edge18" class="edge">
<title>Non&#45;quoted value&#45;&gt;Non&#45;quoted value</title>
<path fill="none" stroke="black" d="M705.39,-73.15C703.22,-82.54 707.92,-91 719.5,-91 726.56,-91 731.06,-87.86 733.01,-83.28"/>
<polygon fill="black" stroke="black" points="736.51,-83.34 733.61,-73.15 729.52,-82.93 736.51,-83.34"/>
<text text-anchor="middle" x="719.5" y="-94.8" font-family="Times,serif" font-size="14.00">*</text>
</g>
</g>
</svg>
