<?xml version="1.0" encoding="UTF-8" standalone="no"?>
<!DOCTYPE svg PUBLIC "-//W3C//DTD SVG 1.1//EN"
 "http://www.w3.org/Graphics/SVG/1.1/DTD/svg11.dtd">
<!-- Generated by graphviz version 2.50.0 (0)
 -->
<!-- Title: finite_state_machine Pages: 1 -->
<svg width="585pt" height="509pt"
 viewBox="0.00 0.00 584.50 509.00" xmlns="http://www.w3.org/2000/svg" xmlns:xlink="http://www.w3.org/1999/xlink">
<g id="graph0" class="graph" transform="scale(1 1) rotate(0) translate(4 505)">
<title>finite_state_machine</title>
<polygon fill="white" stroke="transparent" points="-4,4 -4,-505 580.5,-505 580.5,4 -4,4"/>
<!-- None -->
<g id="node1" class="node">
<title>None</title>
<polygon fill="none" stroke="black" points="231.5,-501 177.5,-501 177.5,-465 231.5,-465 231.5,-501"/>
<text text-anchor="middle" x="204.5" y="-479.3" font-family="Times,serif" font-size="14.00">None</text>
</g>
<!-- None&#45;&gt;None -->
<g id="edge1" class="edge">
<title>None&#45;&gt;None</title>
<path fill="none" stroke="black" d="M231.74,-490.87C241.52,-491.04 249.5,-488.41 249.5,-483 249.5,-479.7 246.54,-477.44 242.01,-476.21"/>
<polygon fill="black" stroke="black" points="242.05,-472.7 231.74,-475.13 241.32,-479.66 242.05,-472.7"/>
<text text-anchor="middle" x="288" y="-479.3" font-family="Times,serif" font-size="14.00">␣, \t, \r, \n, \0</text>
</g>
<!-- Comment -->
<g id="node2" class="node">
<title>Comment</title>
<polygon fill="none" stroke="black" points="71,-414 0,-414 0,-378 71,-378 71,-414"/>
<text text-anchor="middle" x="35.5" y="-392.3" font-family="Times,serif" font-size="14.00">Comment</text>
</g>
<!-- None&#45;&gt;Comment -->
<g id="edge2" class="edge">
<title>None&#45;&gt;Comment</title>
<path fill="none" stroke="black" d="M177.3,-475.84C155.23,-470.19 123.74,-460.62 98.5,-447 91.07,-442.99 76.61,-431.62 63.41,-420.73"/>
<polygon fill="black" stroke="black" points="65.35,-417.79 55.43,-414.08 60.87,-423.17 65.35,-417.79"/>
<text text-anchor="middle" x="108" y="-435.8" font-family="Times,serif" font-size="14.00">;, #</text>
</g>
<!-- Section name -->
<g id="node3" class="node">
<title>Section name</title>
<polygon fill="none" stroke="black" points="249.5,-414 159.5,-414 159.5,-378 249.5,-378 249.5,-414"/>
<text text-anchor="middle" x="204.5" y="-392.3" font-family="Times,serif" font-size="14.00">Section name</text>
</g>
<!-- None&#45;&gt;Section name -->
<g id="edge5" class="edge">
<title>None&#45;&gt;Section name</title>
<path fill="none" stroke="black" d="M204.5,-464.8C204.5,-453.16 204.5,-437.55 204.5,-424.24"/>
<polygon fill="black" stroke="black" points="208,-424.18 204.5,-414.18 201,-424.18 208,-424.18"/>
<text text-anchor="middle" x="207" y="-435.8" font-family="Times,serif" font-size="14.00">[</text>
</g>
<!-- Key name -->
<g id="node5" class="node">
<title>Key name</title>
<polygon fill="none" stroke="black" points="428.5,-414 356.5,-414 356.5,-378 428.5,-378 428.5,-414"/>
<text text-anchor="middle" x="392.5" y="-392.3" font-family="Times,serif" font-size="14.00">Key name</text>
</g>
<!-- None&#45;&gt;Key name -->
<g id="edge9" class="edge">
<title>None&#45;&gt;Key name</title>
<path fill="none" stroke="black" d="M231.71,-476.91C256.71,-471.59 294.34,-461.9 324.5,-447 338.91,-439.88 353.46,-429.68 365.37,-420.35"/>
<polygon fill="black" stroke="black" points="367.57,-423.07 373.17,-414.08 363.19,-417.62 367.57,-423.07"/>
<text text-anchor="middle" x="352" y="-435.8" font-family="Times,serif" font-size="14.00">*</text>
</g>
<!-- Comment&#45;&gt;None -->
<g id="edge4" class="edge">
<title>Comment&#45;&gt;None</title>
<path fill="none" stroke="black" d="M26.69,-414.04C22.56,-424.63 20.02,-437.9 27.5,-447 44.83,-468.09 120.63,-476.69 167.23,-480.03"/>
<polygon fill="black" stroke="black" points="167.06,-483.52 177.27,-480.7 167.52,-476.54 167.06,-483.52"/>
<text text-anchor="middle" x="51" y="-435.8" font-family="Times,serif" font-size="14.00">\r, \n, \0</text>
</g>
<!-- Comment&#45;&gt;Comment -->
<g id="edge3" class="edge">
<title>Comment&#45;&gt;Comment</title>
<path fill="none" stroke="black" d="M71.25,-403.84C81.29,-403.49 89,-400.88 89,-396 89,-392.95 85.99,-390.79 81.28,-389.51"/>
<polygon fill="black" stroke="black" points="81.63,-386.02 71.25,-388.16 80.7,-392.96 81.63,-386.02"/>
<text text-anchor="middle" x="92.5" y="-392.3" font-family="Times,serif" font-size="14.00">*</text>
</g>
<!-- Section name&#45;&gt;Section name -->
<g id="edge6" class="edge">
<title>Section name&#45;&gt;Section name</title>
<path fill="none" stroke="black" d="M249.52,-403.7C259.89,-403.04 267.5,-400.47 267.5,-396 267.5,-393.21 264.53,-391.16 259.76,-389.85"/>
<polygon fill="black" stroke="black" points="259.93,-386.33 249.52,-388.3 258.88,-393.25 259.93,-386.33"/>
<text text-anchor="middle" x="271" y="-392.3" font-family="Times,serif" font-size="14.00">*</text>
</g>
<!-- After section name -->
<g id="node4" class="node">
<title>After section name</title>
<polygon fill="none" stroke="black" points="279.5,-312 159.5,-312 159.5,-276 279.5,-276 279.5,-312"/>
<text text-anchor="middle" x="219.5" y="-290.3" font-family="Times,serif" font-size="14.00">After section name</text>
</g>
<!-- Section name&#45;&gt;After section name -->
<g id="edge7" class="edge">
<title>Section name&#45;&gt;After section name</title>
<path fill="none" stroke="black" d="M207.11,-377.58C209.39,-362.38 212.74,-340.07 215.38,-322.46"/>
<polygon fill="black" stroke="black" points="218.89,-322.63 216.92,-312.22 211.97,-321.59 218.89,-322.63"/>
<text text-anchor="middle" x="251" y="-348.8" font-family="Times,serif" font-size="14.00">]</text>
<text text-anchor="middle" x="251" y="-333.8" font-family="Times,serif" font-size="14.00">AddSection()</text>
</g>
<!-- After section name&#45;&gt;None -->
<g id="edge8" class="edge">
<title>After section name&#45;&gt;None</title>
<path fill="none" stroke="black" d="M272.64,-312.03C280.14,-316.69 286.86,-322.58 291.5,-330 298.57,-341.3 292.48,-346.7 291.5,-360 289.72,-384.2 295.21,-392.75 283.5,-414 273.33,-432.46 256.07,-448.19 240.27,-459.86"/>
<polygon fill="black" stroke="black" points="237.85,-457.29 231.7,-465.92 241.89,-463.01 237.85,-457.29"/>
<text text-anchor="middle" x="305.5" y="-392.3" font-family="Times,serif" font-size="14.00">\r, \n</text>
</g>
<!-- Key name&#45;&gt;Key name -->
<g id="edge10" class="edge">
<title>Key name&#45;&gt;Key name</title>
<path fill="none" stroke="black" d="M428.59,-403.84C438.72,-403.49 446.5,-400.88 446.5,-396 446.5,-392.95 443.46,-390.79 438.71,-389.51"/>
<polygon fill="black" stroke="black" points="438.96,-386.01 428.59,-388.16 438.04,-392.95 438.96,-386.01"/>
<text text-anchor="middle" x="450" y="-392.3" font-family="Times,serif" font-size="14.00">*</text>
</g>
<!-- After key name -->
<g id="node6" class="node">
<title>After key name</title>
<polygon fill="none" stroke="black" points="399,-312 298,-312 298,-276 399,-276 399,-312"/>
<text text-anchor="middle" x="348.5" y="-290.3" font-family="Times,serif" font-size="14.00">After key name</text>
</g>
<!-- Key name&#45;&gt;After key name -->
<g id="edge11" class="edge">
<title>Key name&#45;&gt;After key name</title>
<path fill="none" stroke="black" d="M384.84,-377.58C378.02,-362.09 367.96,-339.22 360.15,-321.47"/>
<polygon fill="black" stroke="black" points="363.31,-319.96 356.08,-312.22 356.9,-322.78 363.31,-319.96"/>
<text text-anchor="middle" x="389" y="-341.3" font-family="Times,serif" font-size="14.00">␣, \t</text>
</g>
<!-- Before key value -->
<g id="node7" class="node">
<title>Before key value</title>
<polygon fill="none" stroke="black" points="428,-225 319,-225 319,-189 428,-189 428,-225"/>
<text text-anchor="middle" x="373.5" y="-203.3" font-family="Times,serif" font-size="14.00">Before key value</text>
</g>
<!-- Key name&#45;&gt;Before key value -->
<g id="edge13" class="edge">
<title>Key name&#45;&gt;Before key value</title>
<path fill="none" stroke="black" d="M410.92,-377.79C433.22,-354.77 465.86,-312.6 449.5,-276 441.39,-257.86 425.79,-242.56 410.82,-231.09"/>
<polygon fill="black" stroke="black" points="412.76,-228.18 402.62,-225.12 408.64,-233.84 412.76,-228.18"/>
<text text-anchor="middle" x="458" y="-290.3" font-family="Times,serif" font-size="14.00">=</text>
</g>
<!-- After key name&#45;&gt;After key name -->
<g id="edge12" class="edge">
<title>After key name&#45;&gt;After key name</title>
<path fill="none" stroke="black" d="M399.28,-301.57C409.61,-300.75 417,-298.22 417,-294 417,-291.36 414.11,-289.38 409.43,-288.07"/>
<polygon fill="black" stroke="black" points="409.72,-284.57 399.28,-286.43 408.59,-291.48 409.72,-284.57"/>
<text text-anchor="middle" x="428.5" y="-290.3" font-family="Times,serif" font-size="14.00">␣, \t</text>
</g>
<!-- After key name&#45;&gt;Before key value -->
<g id="edge14" class="edge">
<title>After key name&#45;&gt;Before key value</title>
<path fill="none" stroke="black" d="M353.56,-275.8C357.02,-264.05 361.67,-248.24 365.61,-234.84"/>
<polygon fill="black" stroke="black" points="368.98,-235.76 368.45,-225.18 362.27,-233.78 368.98,-235.76"/>
<text text-anchor="middle" x="367" y="-246.8" font-family="Times,serif" font-size="14.00">=</text>
</g>
<!-- Before key value&#45;&gt;Before key value -->
<g id="edge15" class="edge">
<title>Before key value&#45;&gt;Before key value</title>
<path fill="none" stroke="black" d="M428.2,-214.5C438.62,-213.6 446,-211.1 446,-207 446,-204.44 443.12,-202.5 438.41,-201.19"/>
<polygon fill="black" stroke="black" points="438.63,-197.68 428.2,-199.5 437.49,-204.58 438.63,-197.68"/>
<text text-anchor="middle" x="457.5" y="-203.3" font-family="Times,serif" font-size="14.00">␣, \t</text>
</g>
<!-- Quoted value -->
<g id="node8" class="node">
<title>Quoted value</title>
<polygon fill="none" stroke="black" points="345,-138 256,-138 256,-102 345,-102 345,-138"/>
<text text-anchor="middle" x="300.5" y="-116.3" font-family="Times,serif" font-size="14.00">Quoted value</text>
</g>
<!-- Before key value&#45;&gt;Quoted value -->
<g id="edge16" class="edge">
<title>Before key value&#45;&gt;Quoted value</title>
<path fill="none" stroke="black" d="M358.73,-188.8C348.14,-176.47 333.72,-159.68 321.88,-145.89"/>
<polygon fill="black" stroke="black" points="324.42,-143.48 315.25,-138.18 319.11,-148.04 324.42,-143.48"/>
<text text-anchor="middle" x="344.5" y="-159.8" font-family="Times,serif" font-size="14.00">&quot;</text>
</g>
<!-- Non&#45;quoted value -->
<g id="node10" class="node">
<title>Non&#45;quoted value</title>
<polygon fill="none" stroke="black" points="540.5,-138 426.5,-138 426.5,-102 540.5,-102 540.5,-138"/>
<text text-anchor="middle" x="483.5" y="-116.3" font-family="Times,serif" font-size="14.00">Non&#45;quoted value</text>
</g>
<!-- Before key value&#45;&gt;Non&#45;quoted value -->
<g id="edge20" class="edge">
<title>Before key value&#45;&gt;Non&#45;quoted value</title>
<path fill="none" stroke="black" d="M395.76,-188.8C412.31,-176.01 435.08,-158.42 453.27,-144.36"/>
<polygon fill="black" stroke="black" points="455.5,-147.06 461.27,-138.18 451.22,-141.52 455.5,-147.06"/>
<text text-anchor="middle" x="438" y="-159.8" font-family="Times,serif" font-size="14.00">*</text>
</g>
<!-- Quoted value&#45;&gt;Quoted value -->
<g id="edge17" class="edge">
<title>Quoted value&#45;&gt;Quoted value</title>
<path fill="none" stroke="black" d="M345.16,-127.7C355.45,-127.04 363,-124.47 363,-120 363,-117.21 360.05,-115.16 355.33,-113.85"/>
<polygon fill="black" stroke="black" points="355.58,-110.35 345.16,-112.3 354.52,-117.27 355.58,-110.35"/>
<text text-anchor="middle" x="366.5" y="-116.3" font-family="Times,serif" font-size="14.00">*</text>
</g>
<!-- After key value -->
<g id="node9" class="node">
<title>After key value</title>
<polygon fill="none" stroke="black" points="198,-36 97,-36 97,0 198,0 198,-36"/>
<text text-anchor="middle" x="147.5" y="-14.3" font-family="Times,serif" font-size="14.00">After key value</text>
</g>
<!-- Quoted value&#45;&gt;After key value -->
<g id="edge18" class="edge">
<title>Quoted value&#45;&gt;After key value</title>
<path fill="none" stroke="black" d="M274.2,-101.81C248.83,-85.23 210.29,-60.04 182.37,-41.79"/>
<polygon fill="black" stroke="black" points="184,-38.67 173.71,-36.13 180.17,-44.53 184,-38.67"/>
<text text-anchor="middle" x="275" y="-72.8" font-family="Times,serif" font-size="14.00">&quot;</text>
<text text-anchor="middle" x="275" y="-57.8" font-family="Times,serif" font-size="14.00">AddKey()</text>
</g>
<!-- After key value&#45;&gt;None -->
<g id="edge19" class="edge">
<title>After key value&#45;&gt;None</title>
<path fill="none" stroke="black" d="M143.04,-36.21C138.31,-56.03 131.5,-89.64 131.5,-119 131.5,-397 131.5,-397 131.5,-397 131.5,-422.42 150.52,-444.03 169.14,-459.1"/>
<polygon fill="black" stroke="black" points="167.25,-462.06 177.32,-465.36 171.5,-456.5 167.25,-462.06"/>
<text text-anchor="middle" x="155" y="-246.8" font-family="Times,serif" font-size="14.00">\r, \n, \0</text>
</g>
<!-- Non&#45;quoted value&#45;&gt;None -->
<g id="edge22" class="edge">
<title>Non&#45;quoted value&#45;&gt;None</title>
<path fill="none" stroke="black" d="M496.37,-138.23C507.39,-154.74 521.5,-180.78 521.5,-206 521.5,-397 521.5,-397 521.5,-397 521.5,-454.37 325.33,-474.08 241.63,-479.88"/>
<polygon fill="black" stroke="black" points="241.27,-476.39 231.53,-480.55 241.74,-483.38 241.27,-476.39"/>
<text text-anchor="middle" x="549" y="-297.8" font-family="Times,serif" font-size="14.00">\r, \n, \0</text>
<text text-anchor="middle" x="549" y="-282.8" font-family="Times,serif" font-size="14.00">AddKey()</text>
</g>
<!-- Non&#45;quoted value&#45;&gt;Non&#45;quoted value -->
<g id="edge21" class="edge">
<title>Non&#45;quoted value&#45;&gt;Non&#45;quoted value</title>
<path fill="none" stroke="black" d="M540.73,-127.44C551.17,-126.5 558.5,-124.02 558.5,-120 558.5,-117.49 555.64,-115.58 550.94,-114.27"/>
<polygon fill="black" stroke="black" points="551.17,-110.76 540.73,-112.56 550.01,-117.66 551.17,-110.76"/>
<text text-anchor="middle" x="562" y="-116.3" font-family="Times,serif" font-size="14.00">*</text>
</g>
</g>
</svg>
